<svg width="22" height="22" viewBox="0 0 22 22" fill="none" xmlns="http://www.w3.org/2000/svg">
<path d="M21.6226 8.87828H20.75V8.83332H11V13.1667H17.1224C16.2292 15.6892 13.8291 17.5 11 17.5C7.41033 17.5 4.49996 14.5896 4.49996 11C4.49996 7.41037 7.41033 4.49999 11 4.49999C12.6569 4.49999 14.1644 5.12507 15.3122 6.14611L18.3764 3.08191C16.4415 1.2787 13.8535 0.166656 11 0.166656C5.01725 0.166656 0.166626 5.01728 0.166626 11C0.166626 16.9827 5.01725 21.8333 11 21.8333C16.9827 21.8333 21.8333 16.9827 21.8333 11C21.8333 10.2736 21.7585 9.56457 21.6226 8.87828Z" fill="#FFC107"/>
<path d="M1.41577 5.95761L4.97506 8.56791C5.93815 6.18349 8.27056 4.49999 11 4.49999C12.657 4.49999 14.1644 5.12507 15.3122 6.14611L18.3764 3.08191C16.4416 1.2787 13.8535 0.166656 11 0.166656C6.83894 0.166656 3.23036 2.51586 1.41577 5.95761Z" fill="#FF3D00"/>
<path d="M11 21.8333C13.7982 21.8333 16.3408 20.7625 18.2632 19.021L14.9103 16.1838C13.7861 17.0387 12.4123 17.5011 11 17.5C8.18222 17.5 5.78967 15.7033 4.88834 13.1959L1.35559 15.9178C3.14851 19.4262 6.78959 21.8333 11 21.8333Z" fill="#4CAF50"/>
<path d="M21.6226 8.8783H20.75V8.83334H11V13.1667H17.1225C16.6952 14.3672 15.9256 15.4163 14.9087 16.1843L14.9103 16.1832L18.2632 19.0205C18.026 19.2361 21.8333 16.4167 21.8333 11C21.8333 10.2736 21.7586 9.56459 21.6226 8.8783Z" fill="#1976D2"/>
</svg>
