<svg width="167" height="50" viewBox="0 0 167 50" fill="none" xmlns="http://www.w3.org/2000/svg">
<g clip-path="url(#clip0_15_2586)">
<path d="M12.6663 28.5244L0.332642 21.4756L0.332642 7.37804L12.6663 0.329254L25 7.37804V21.4756L12.6663 28.5244Z" stroke="#A42CD6" stroke-width="2.49762" stroke-linecap="round" stroke-linejoin="round"/>
<path d="M37.3337 28.5244L25 21.4756L25 7.37804L37.3337 0.329254L49.6674 7.37804V21.4756L37.3337 28.5244Z" stroke="#A42CD6" stroke-width="2.49762" stroke-linecap="round" stroke-linejoin="round"/>
<path d="M25 49.6708L12.6663 42.622L12.6663 28.5244L25 21.4756L37.3337 28.5244V42.622L25 49.6708Z" stroke="#A42CD6" stroke-width="2.49762" stroke-linecap="round" stroke-linejoin="round"/>
<path d="M25 44.9173L16.8251 40.2452V30.9011L25 26.2291L33.175 30.9011L33.175 40.2452L25 44.9173Z" stroke="#A42CD6" stroke-width="2.49762" stroke-linecap="round" stroke-linejoin="round"/>
<path d="M37.3337 23.7709L29.1588 19.0989V9.75478L37.3337 5.08273L45.5087 9.75478L45.5087 19.0989L37.3337 23.7709Z" stroke="#A42CD6" stroke-width="2.49762" stroke-linecap="round" stroke-linejoin="round"/>
<path d="M12.873 23.7709L4.69806 19.0989V9.75478L12.873 5.08273L21.048 9.75478L21.048 19.0989L12.873 23.7709Z" stroke="#A42CD6" stroke-width="2.49762" stroke-linecap="round" stroke-linejoin="round"/>
</g>
<path d="M66.6777 34.3223H69.3633C69.2917 35.2728 69.028 36.1159 68.5723 36.8516C68.1165 37.5807 67.4818 38.1536 66.668 38.5703C65.8542 38.987 64.8678 39.1953 63.709 39.1953C62.8171 39.1953 62.013 39.0391 61.2969 38.7266C60.5872 38.4076 59.9785 37.9551 59.4707 37.3691C58.9694 36.7767 58.5853 36.0671 58.3184 35.2402C58.0514 34.4069 57.918 33.4727 57.918 32.4375V31.3535C57.918 30.3184 58.0547 29.3841 58.3281 28.5508C58.6016 27.7174 58.9922 27.0078 59.5 26.4219C60.0143 25.8294 60.6296 25.3737 61.3457 25.0547C62.0684 24.7357 62.8757 24.5762 63.7676 24.5762C64.9264 24.5762 65.9062 24.791 66.707 25.2207C67.5078 25.6439 68.1296 26.2266 68.5723 26.9688C69.015 27.7109 69.2819 28.5638 69.373 29.5273H66.6875C66.6354 28.9284 66.5052 28.4206 66.2969 28.0039C66.0951 27.5872 65.7891 27.2715 65.3789 27.0566C64.9753 26.8353 64.4382 26.7246 63.7676 26.7246C63.2467 26.7246 62.7878 26.8223 62.3906 27.0176C62 27.2129 61.6745 27.5059 61.4141 27.8965C61.1536 28.2806 60.9583 28.7624 60.8281 29.3418C60.6979 29.9147 60.6328 30.5788 60.6328 31.334V32.4375C60.6328 33.1602 60.6914 33.8079 60.8086 34.3809C60.9258 34.9538 61.1081 35.4388 61.3555 35.8359C61.6029 36.2331 61.9219 36.5358 62.3125 36.7441C62.7031 36.9525 63.1686 37.0566 63.709 37.0566C64.3665 37.0566 64.9004 36.9525 65.3105 36.7441C65.7272 36.5358 66.043 36.2298 66.2578 35.8262C66.4792 35.4225 66.6191 34.9212 66.6777 34.3223ZM73.7773 24V39H71.1895V24H73.7773ZM73.3672 33.3359H72.6055C72.6055 32.6003 72.7031 31.9232 72.8984 31.3047C73.0938 30.6862 73.3704 30.1491 73.7285 29.6934C74.0866 29.2311 74.513 28.873 75.0078 28.6191C75.5091 28.3652 76.0625 28.2383 76.668 28.2383C77.1888 28.2383 77.6608 28.3132 78.084 28.4629C78.5137 28.6061 78.8815 28.8372 79.1875 29.1562C79.4935 29.4753 79.7279 29.8919 79.8906 30.4062C80.0599 30.9141 80.1445 31.5326 80.1445 32.2617V39H77.5469V32.2422C77.5469 31.7539 77.4753 31.3698 77.332 31.0898C77.1888 30.8034 76.9837 30.5983 76.7168 30.4746C76.4564 30.3509 76.1341 30.2891 75.75 30.2891C75.3333 30.2891 74.9753 30.3704 74.6758 30.5332C74.3763 30.6895 74.1289 30.9076 73.9336 31.1875C73.7448 31.4674 73.6016 31.7897 73.5039 32.1543C73.4128 32.5189 73.3672 32.9128 73.3672 33.3359ZM88.2402 36.7539V31.8809C88.2402 31.5228 88.1784 31.2135 88.0547 30.9531C87.931 30.6927 87.7422 30.4909 87.4883 30.3477C87.2344 30.2044 86.9121 30.1328 86.5215 30.1328C86.1764 30.1328 85.8737 30.1914 85.6133 30.3086C85.3594 30.4258 85.1641 30.5918 85.0273 30.8066C84.8906 31.015 84.8223 31.2559 84.8223 31.5293H82.2344C82.2344 31.0931 82.3385 30.6797 82.5469 30.2891C82.7552 29.8919 83.0514 29.5404 83.4355 29.2344C83.8262 28.9219 84.2917 28.6777 84.832 28.502C85.3789 28.3262 85.9909 28.2383 86.668 28.2383C87.4688 28.2383 88.1816 28.375 88.8066 28.6484C89.4382 28.9154 89.9329 29.319 90.291 29.8594C90.6556 30.3997 90.8379 31.0801 90.8379 31.9004V36.5098C90.8379 37.0371 90.8704 37.4896 90.9355 37.8672C91.0072 38.2383 91.1113 38.5605 91.248 38.834V39H88.6211C88.4974 38.7331 88.403 38.3945 88.3379 37.9844C88.2728 37.5677 88.2402 37.1576 88.2402 36.7539ZM88.6016 32.5645L88.6211 34.0977H86.9902C86.5866 34.0977 86.2318 34.14 85.9258 34.2246C85.6198 34.3027 85.3691 34.4199 85.1738 34.5762C84.9785 34.7259 84.832 34.9082 84.7344 35.123C84.6367 35.3314 84.5879 35.569 84.5879 35.8359C84.5879 36.0964 84.6465 36.3307 84.7637 36.5391C84.8874 36.7474 85.0632 36.9134 85.291 37.0371C85.5254 37.1543 85.7988 37.2129 86.1113 37.2129C86.5671 37.2129 86.9642 37.1217 87.3027 36.9395C87.6413 36.7507 87.9049 36.5228 88.0938 36.2559C88.2826 35.9889 88.3835 35.735 88.3965 35.4941L89.1387 36.6074C89.0475 36.8743 88.9108 37.1576 88.7285 37.457C88.5462 37.7565 88.3118 38.0365 88.0254 38.2969C87.7389 38.5573 87.3939 38.7721 86.9902 38.9414C86.5866 39.1107 86.1178 39.1953 85.584 39.1953C84.9004 39.1953 84.2884 39.0586 83.748 38.7852C83.2077 38.5117 82.7812 38.1374 82.4688 37.6621C82.1562 37.1868 82 36.6465 82 36.041C82 35.4811 82.1042 34.9863 82.3125 34.5566C82.5208 34.127 82.8301 33.7656 83.2402 33.4727C83.6504 33.1732 84.1582 32.9486 84.7637 32.7988C85.3757 32.6426 86.0755 32.5645 86.8633 32.5645H88.6016ZM98.1621 28.4336V30.2891H92.1074V28.4336H98.1621ZM93.7285 25.8359H96.3164V35.9531C96.3164 36.2656 96.3587 36.5065 96.4434 36.6758C96.528 36.8451 96.6549 36.959 96.8242 37.0176C96.9935 37.0762 97.1953 37.1055 97.4297 37.1055C97.599 37.1055 97.7552 37.0957 97.8984 37.0762C98.0417 37.0566 98.1621 37.0371 98.2598 37.0176L98.2695 38.9512C98.0547 39.0228 97.8105 39.0814 97.5371 39.127C97.2702 39.1725 96.9674 39.1953 96.6289 39.1953C96.0495 39.1953 95.5417 39.0977 95.1055 38.9023C94.6693 38.7005 94.3307 38.3783 94.0898 37.9355C93.849 37.4863 93.7285 36.8939 93.7285 36.1582V25.8359ZM109.51 30.6504V32.7598H102.029V30.6504H109.51ZM102.762 24.7812V39H100.076V24.7812H102.762ZM111.502 24.7812V39H108.816V24.7812H111.502ZM116.775 28.4336V39H114.188V28.4336H116.775ZM114.012 25.6699C114.012 25.2858 114.142 24.9668 114.402 24.7129C114.669 24.459 115.027 24.332 115.477 24.332C115.926 24.332 116.281 24.459 116.541 24.7129C116.808 24.9668 116.941 25.2858 116.941 25.6699C116.941 26.0475 116.808 26.3633 116.541 26.6172C116.281 26.8711 115.926 26.998 115.477 26.998C115.027 26.998 114.669 26.8711 114.402 26.6172C114.142 26.3633 114.012 26.0475 114.012 25.6699ZM122.742 37.0469L125.203 28.4336H127.898L124.275 39H122.635L122.742 37.0469ZM120.945 28.4336L123.436 37.0664L123.523 39H121.873L118.24 28.4336H120.945ZM133.865 39.1953C133.064 39.1953 132.345 39.0651 131.707 38.8047C131.069 38.5443 130.525 38.1829 130.076 37.7207C129.633 37.252 129.292 36.7083 129.051 36.0898C128.816 35.4648 128.699 34.7943 128.699 34.0781V33.6875C128.699 32.8737 128.816 32.1348 129.051 31.4707C129.285 30.8001 129.617 30.224 130.047 29.7422C130.477 29.2604 130.991 28.8893 131.59 28.6289C132.189 28.3685 132.85 28.2383 133.572 28.2383C134.321 28.2383 134.982 28.3652 135.555 28.6191C136.128 28.8665 136.606 29.2181 136.99 29.6738C137.374 30.1296 137.664 30.6764 137.859 31.3145C138.055 31.946 138.152 32.6458 138.152 33.4141V34.498H129.871V32.7207H135.613V32.5254C135.6 32.1152 135.522 31.7409 135.379 31.4023C135.236 31.0573 135.014 30.7839 134.715 30.582C134.415 30.3737 134.028 30.2695 133.553 30.2695C133.169 30.2695 132.833 30.3542 132.547 30.5234C132.267 30.6862 132.033 30.9206 131.844 31.2266C131.661 31.526 131.525 31.8841 131.434 32.3008C131.342 32.7174 131.297 33.1797 131.297 33.6875V34.0781C131.297 34.5208 131.355 34.931 131.473 35.3086C131.596 35.6862 131.775 36.015 132.01 36.2949C132.251 36.5684 132.537 36.7832 132.869 36.9395C133.208 37.0892 133.592 37.1641 134.021 37.1641C134.562 37.1641 135.05 37.0599 135.486 36.8516C135.929 36.6367 136.313 36.321 136.639 35.9043L137.938 37.252C137.716 37.5775 137.417 37.89 137.039 38.1895C136.668 38.4889 136.219 38.7331 135.691 38.9219C135.164 39.1042 134.555 39.1953 133.865 39.1953ZM145.73 26.9395L141.678 39H138.836L144.148 24.7812H145.965L145.73 26.9395ZM149.119 39L145.047 26.9395L144.803 24.7812H146.629L151.971 39H149.119ZM148.934 33.7168V35.8359H141.307V33.7168H148.934ZM156.297 24.7812V39H153.611V24.7812H156.297Z" fill="white"/>
<defs>
<clipPath id="clip0_15_2586">
<rect width="50" height="50" fill="white"/>
</clipPath>
</defs>
</svg>
